# xmcd
#
# Track frame offsets:
#	150
#	21757
#	37412
#	57170
#	72525
#	92925
#	111670
#	131482
#	160127
#	179172
#
# Disc length: 2635 seconds
#
# Revision: 1
# Processed by: cddbd v1.5.1PL0 Copyright (c) Steve Scherf et al.
# Submitted via: EasyCDDAExtractor 7.1.0.1
#
DISCID=9b0a490a
DTITLE=Cherokee - I Love You... Me
DYEAR=1998
DGENRE=R&B
TTITLE0=While I'm Flying
TTITLE1=Oopsy Daisy
TTITLE2=Sexy Something'
TTITLE3=Ooh Wee Wee
TTITLE4=Steppin' Stone
TTITLE5=Misty
TTITLE6=Blue Bottle Afta Shave
TTITLE7=My Own Queen
TTITLE8=I Love You... Me
TTITLE9=Fictitiously
EXTD=
EXTT0=
EXTT1=
EXTT2=
EXTT3=
EXTT4=
EXTT5=
EXTT6=
EXTT7=
EXTT8=
EXTT9=
PLAYORDER=
